# Blender v2.91.0 OBJ File: 'mode oiseau.blend'
# www.blender.org
mtllib mode oiseau.mtl
o Plane.002_Plane.008
v 0.577747 2.437883 -0.815002
v -0.220142 0.141107 0.057228
v -1.347948 4.801314 0.056106
v -1.002660 2.481459 -0.271287
v 1.659546 1.127166 -1.153847
v 0.853792 1.621510 -0.843255
v -0.015696 2.778175 0.063758
v 0.096019 2.157107 0.058088
v 0.141727 3.367400 0.057411
v -0.280380 2.440336 0.056336
v -0.445027 4.444034 -0.486982
v 0.004600 3.573865 0.054905
v -1.103848 3.352857 -0.564291
v -0.716081 0.804114 -0.178616
v -0.977144 2.205464 -0.530656
v -0.974736 2.775791 -0.379400
v 0.577747 2.437883 0.968223
v -0.220142 0.141106 0.055714
v -1.347948 4.801315 0.056837
v -1.002661 2.481459 0.424507
v 1.659545 1.127166 1.307068
v 0.853791 1.621509 0.996476
v -0.015696 2.778175 0.051314
v 0.096019 2.157107 0.056985
v 0.141727 3.367401 0.057661
v -0.280380 2.440335 0.056665
v -0.445028 4.444034 0.640202
v 0.004600 3.573864 0.052356
v -1.103848 3.352857 0.717511
v -0.716081 0.804113 0.331837
v -0.977144 2.205464 0.683875
v -0.974736 2.775791 0.532621
vt 0.975757 0.976089
vt 0.704736 0.705067
vt 0.392172 0.839443
vt 0.529323 0.976089
vt 0.975757 0.521825
vt 0.972618 0.020233
vt 0.828441 0.164434
vt 0.975757 0.173349
vt 0.437975 0.976089
vt 0.322810 0.861267
vt 0.227371 0.766111
vt 0.020337 0.973391
vt 0.128511 0.976089
vt 0.723669 0.269225
vt 0.272859 0.720569
vt 0.496417 0.496746
vt 0.012943 0.017015
vt 0.278233 0.282103
vt 0.584021 0.150502
vt 0.449769 0.016848
vt 0.013113 0.461503
vt 0.016372 0.952301
vt 0.157392 0.811149
vt 0.013243 0.802480
vt 0.539152 0.016814
vt 0.651881 0.129121
vt 0.745302 0.222194
vt 0.947804 0.019297
vt 0.841957 0.016698
vt 0.259870 0.708574
vt 0.700811 0.266773
vt 0.482147 0.485863
vn 0.1843 -0.0313 0.9824
vn -0.3148 -0.3351 -0.8880
vn 0.5686 0.6261 0.5335
vn -0.0395 0.3724 -0.9272
vn 0.4101 -0.0336 -0.9114
vn 0.4843 -0.1917 -0.8536
vn -0.4500 -0.1571 0.8791
vn 0.3244 0.1379 0.9358
vn 0.4628 0.0030 -0.8865
vn -0.4216 0.2181 0.8801
vn -0.1843 0.0313 0.9824
vn 0.3148 0.3351 -0.8880
vn -0.5793 -0.6402 0.5046
vn 0.0395 -0.3724 -0.9272
vn -0.4498 0.0327 -0.8925
vn -0.5220 0.1987 -0.8295
vn 0.4755 0.1576 0.8655
vn -0.3244 -0.1379 0.9358
vn -0.4853 -0.0039 -0.8744
vn 0.4490 -0.2216 0.8656
usemtl oie
s off
f 1/1/1 13/2/1 15/3/1 5/4/1
f 1/1/2 4/5/2 13/2/2
f 3/6/3 12/7/3 11/8/3
f 6/9/4 5/4/4 15/3/4 16/10/4
f 7/11/5 2/12/5 14/13/5 16/10/5
f 12/7/6 10/14/6 4/5/6 11/8/6
f 15/3/7 8/15/7 7/11/7 16/10/7
f 14/13/8 6/9/8 16/10/8
f 13/2/9 9/16/9 8/15/9 15/3/9
f 4/5/10 10/14/10 9/16/10 13/2/10
f 17/17/11 29/18/11 31/19/11 21/20/11
f 17/17/12 20/21/12 29/18/12
f 19/22/13 28/23/13 27/24/13
f 22/25/14 21/20/14 31/19/14 32/26/14
f 23/27/15 18/28/15 30/29/15 32/26/15
f 28/23/16 26/30/16 20/21/16 27/24/16
f 31/19/17 24/31/17 23/27/17 32/26/17
f 30/29/18 22/25/18 32/26/18
f 29/18/19 25/32/19 24/31/19 31/19/19
f 20/21/20 26/30/20 25/32/20 29/18/20
