# Blender v2.90.1 OBJ File: 'herbe_mode.blend'
# www.blender.org
mtllib herbe3.mtl
o herbe_3_Plane.003
v -1.675354 0.348385 0.098514
v -1.623338 0.323678 0.323286
v -1.721981 -0.033658 0.077942
v -1.648555 -0.054260 0.298664
v -1.937522 0.658383 -0.056932
v -1.708606 0.615241 -0.072118
v -1.985957 -0.033641 0.151182
v -1.752495 -0.028172 0.151182
v -1.912160 0.251728 0.469775
v -1.693498 0.276872 0.392297
v -1.886576 -0.065230 0.401070
v -1.678400 -0.024125 0.303566
v -2.059434 0.082974 0.132576
v -1.908144 0.154282 -0.030398
v -2.022471 -0.101984 0.111021
v -1.871180 -0.030677 -0.051953
v -1.721786 0.391887 0.612575
v -1.782488 -0.044677 0.352318
v -2.037180 0.331125 0.087066
v -1.888774 -0.058038 0.045072
v -1.816498 0.730547 -0.274417
v -1.869226 -0.030906 0.184151
v -1.464280 0.528105 0.171462
v -1.720027 -0.043959 0.199866
v -1.676520 0.353749 0.223581
v -1.766053 0.489604 0.366812
v -1.819200 0.663658 -0.041425
v -1.819644 0.289782 0.399713
v -1.925023 0.122924 0.075805
v -1.970648 0.359568 0.145170
v -1.851148 0.359254 0.159628
v -1.741617 0.325714 0.114977
v -1.910699 0.166883 0.421151
v -1.812923 0.190621 0.360622
v -1.695714 0.201205 0.337005
v -1.737909 0.118930 0.095698
v -1.672601 0.087338 0.317658
v -1.739403 0.117843 0.219440
v -1.995292 0.446462 0.357713
v -1.730317 -0.033641 0.258432
v -1.962471 -0.028172 0.233752
v -1.909390 0.561768 0.570285
v -1.842909 -0.030906 0.213308
v -1.882073 0.494879 0.338884
v -1.746176 0.359568 0.262793
v -1.863478 0.359254 0.235783
v -1.977115 0.325714 0.268605
v -2.119490 0.251728 0.146187
v -1.998232 0.276872 0.343955
v -2.046968 -0.065230 0.156923
v -1.908302 -0.024125 0.340271
v -2.219577 0.391887 0.362097
v -1.977635 -0.044677 0.248597
v -2.031721 0.289782 0.222110
v -2.071626 0.166883 0.137504
v -1.992086 0.190621 0.220555
v -1.944610 0.201205 0.330290
vt 0.536953 0.559715
vt 0.432106 0.325524
vt 0.529605 0.329439
vt 0.134193 0.000203
vt 0.218624 0.208468
vt 0.113785 0.201769
vt 0.713672 0.479687
vt 0.640017 0.283762
vt 0.740305 0.282320
vt 0.323263 0.652877
vt 0.436894 0.826242
vt 0.347261 0.843633
vt 0.836229 0.288000
vt 0.223902 0.841015
vt 0.013228 0.191641
vt 0.633807 0.332857
vt 0.531255 0.138315
vt 0.432479 0.121783
vt 0.428894 0.000203
vt 0.531536 0.004717
vt 0.633807 0.003172
vt 0.631919 0.132242
vt 0.098369 0.490391
vt 0.119306 0.807199
vt 0.019792 0.818808
vt 0.000203 0.494416
vt 0.197911 0.498286
vt 0.218624 0.792198
vt 0.732843 0.201605
vt 0.634213 0.204086
vt 0.635172 0.007687
vt 0.735922 0.003180
vt 0.836229 0.000203
vt 0.832773 0.201477
vt 0.349026 0.996003
vt 0.219030 0.999797
vt 0.436894 0.987165
vt 0.355238 0.000203
vt 0.428488 0.205087
vt 0.325887 0.194075
vt 0.230982 0.178996
vt 0.319801 0.325457
vt 0.327155 0.644784
vt 0.225534 0.652471
vt 0.219030 0.321966
vt 0.418618 0.334357
vt 0.428488 0.633331
vt 0.713672 0.959577
vt 0.640017 0.763651
vt 0.740305 0.762210
vt 0.836229 0.767890
vt 0.732843 0.681495
vt 0.634213 0.683976
vt 0.635171 0.487577
vt 0.735922 0.483070
vt 0.836229 0.480093
vt 0.832773 0.681366
vn 0.4840 -0.7323 -0.4790
vn -0.4459 -0.8589 -0.2518
vn 0.0641 0.8880 -0.4554
vn -0.8543 -0.4457 -0.2674
vn -0.4897 0.8523 -0.1837
vn -0.3501 -0.1385 -0.9264
vn 0.0787 -0.9584 -0.2742
vn 0.6400 -0.7674 0.0389
vn 0.8219 0.1861 -0.5383
vn 0.9938 0.1112 0.0033
vn 0.1971 -0.0466 -0.9793
vn -0.3316 -0.0639 -0.9413
vn -0.3171 0.0529 -0.9469
vn -0.4757 -0.0021 -0.8796
vn -0.4271 0.0436 -0.9032
vn -0.9639 -0.1628 -0.2105
vn -0.4358 -0.4585 -0.7745
vn 0.1150 -0.5605 -0.8201
vn -0.6045 0.3207 -0.7292
vn -0.1072 0.4702 -0.8760
vn 0.9654 -0.2604 0.0148
vn 0.8151 -0.1822 -0.5499
vn 0.4168 -0.8589 0.2975
vn -0.1072 -0.9584 0.2644
vn -0.2995 -0.0466 0.9530
vn 0.2302 -0.0639 0.9710
vn 0.3647 -0.5245 0.7694
vn -0.1922 -0.6206 0.7602
vn 0.4588 0.8880 -0.0320
vn 0.0779 0.8523 -0.5172
vn 0.8603 0.0529 -0.5071
vn 0.7614 -0.0021 -0.6482
vn 0.5875 0.3207 -0.7430
vn 0.8346 0.4702 -0.2871
usemtl herbe
s off
f 23/1/1 2/2/1 25/3/1
f 21/4/2 6/5/2 27/6/2
f 17/7/3 10/8/3 28/9/3
f 19/10/4 14/11/4 29/12/4
f 9/13/5 17/7/5 28/9/5
f 13/14/6 19/10/6 29/12/6
f 5/15/7 21/4/7 27/6/7
f 1/16/8 23/1/8 25/3/8
f 38/17/9 37/18/9 4/19/9 24/20/9
f 38/17/10 24/20/10 3/21/10 36/22/10
f 31/23/11 22/24/11 7/25/11 30/26/11
f 31/23/12 32/27/12 8/28/12 22/24/12
f 34/29/13 35/30/13 12/31/13 18/32/13
f 34/29/14 18/32/14 11/33/14 33/34/14
f 29/12/15 20/35/15 15/36/15 13/14/15
f 29/12/16 14/11/16 16/37/16 20/35/16
f 27/6/17 6/5/17 32/27/17 31/23/17
f 27/6/18 31/23/18 30/26/18 5/15/18
f 28/9/19 34/29/19 33/34/19 9/13/19
f 28/9/20 10/8/20 35/30/20 34/29/20
f 25/3/21 38/17/21 36/22/21 1/16/21
f 25/3/22 2/2/22 37/18/22 38/17/22
f 42/38/23 39/39/23 44/40/23
f 26/41/24 42/38/24 44/40/24
f 46/42/25 43/43/25 40/44/25 45/45/25
f 46/42/26 47/46/26 41/47/26 43/43/26
f 44/40/27 39/39/27 47/46/27 46/42/27
f 44/40/28 46/42/28 45/45/28 26/41/28
f 52/48/29 49/49/29 54/50/29
f 48/51/30 52/48/30 54/50/30
f 56/52/31 57/53/31 51/54/31 53/55/31
f 56/52/32 53/55/32 50/56/32 55/57/32
f 54/50/33 56/52/33 55/57/33 48/51/33
f 54/50/34 49/49/34 57/53/34 56/52/34
