# Blender v2.90.1 OBJ File: 'pliage bateau.blend'
# www.blender.org
mtllib mode bateau.mtl
o Cylinder.001
v -0.483427 2.828036 -0.669283
v -0.463868 3.030766 -0.824385
v -0.439052 2.838628 -0.638831
v -0.380410 3.066887 -0.779726
v -0.456002 2.855766 -0.589560
v -0.409245 3.128672 -0.704789
v -0.510853 2.855766 -0.589560
v -0.510524 3.130734 -0.703134
v -0.527803 2.838628 -0.638831
v -0.544283 3.070225 -0.777048
v -0.468835 3.034179 -0.760182
v -0.424055 3.049253 -0.732867
v -0.440336 3.074548 -0.687945
v -0.495178 3.075106 -0.687497
v -0.512792 3.050157 -0.732142
v -0.550434 2.799944 -0.649749
v -0.550434 4.350020 -0.634665
v -0.528642 2.799818 -0.636711
v -0.528642 4.349894 -0.621627
v -0.536966 2.799612 -0.615615
v -0.536966 4.349688 -0.600531
v -0.563902 2.799612 -0.615615
v -0.563902 4.349688 -0.600531
v -0.572225 2.799818 -0.636711
v -0.572225 4.349894 -0.621627
v -0.762529 3.111257 0.602969
v -0.662160 3.917917 0.859587
v -0.762529 2.708364 -0.595534
v -0.762529 2.890660 -0.754817
v -0.367446 3.111257 0.602969
v -0.467814 3.917917 0.859587
v -0.367446 2.708364 -0.595534
v -0.367446 2.890660 -0.754817
v -1.000000 2.909810 -0.038644
v -1.000000 3.405988 0.010547
v -0.129975 2.909810 -0.038644
v -0.129975 3.405988 0.010547
v -0.562804 2.708364 -0.680256
v -0.562804 2.890660 -0.839540
v -0.562804 3.111257 0.602969
v -0.562804 3.921317 0.860633
v -0.654309 3.876716 0.793049
v -0.562804 2.909810 -0.038644
v -0.746613 2.931997 -0.691641
v -0.475578 3.876716 0.793049
v -0.383274 2.931997 -0.691641
v -0.965004 3.405920 0.012227
v -0.164883 3.405920 0.012227
v -0.562935 2.931997 -0.769556
v -0.562935 3.879843 0.794010
v -0.654309 3.176193 0.589088
v -0.758289 2.826099 -0.567384
v -0.475578 3.176193 0.589088
v -0.392026 2.826099 -0.567384
v -0.965004 2.939366 0.012227
v -0.164883 2.939366 0.012227
v -0.562935 2.794582 -0.629570
v -0.563939 3.177757 0.589568
v -0.564943 2.939366 0.012227
v -0.564943 2.939366 0.012227
v -0.550258 3.157347 0.615000
v -0.580257 2.826200 -0.620096
v -0.555474 4.391104 -0.607230
v -0.520259 2.826400 -0.620149
v -0.538539 3.638617 -0.613443
v -0.552790 3.756276 0.021667
v -0.567384 3.639070 -0.613413
v -0.567419 3.636879 -0.613431
v -0.518610 3.691894 -0.325858
v -0.625283 2.980362 -0.045109
v -0.464687 2.980469 -0.045138
v -0.555435 4.381923 -0.598135
v -0.597715 3.691006 -0.325514
v -0.553995 4.271928 -0.631378
v -0.551154 4.037633 -0.638604
v -0.551966 4.142150 -0.887238
vt 0.403567 0.670502
vt 0.386618 0.667433
vt 0.391258 0.649151
vt 0.405357 0.654376
vt 0.402983 0.634916
vt 0.411316 0.642092
vt 0.411759 0.715206
vt 0.403728 0.726622
vt 0.393807 0.707129
vt 0.406639 0.702838
vt 0.388860 0.687538
vt 0.403246 0.687501
vt 0.464951 0.683855
vt 0.463596 0.672503
vt 0.466464 0.695099
vt 0.467187 0.707232
vt 0.464281 0.661602
vt 0.467187 0.649087
vt 0.974403 0.000208
vt 0.973250 0.364050
vt 0.966899 0.364036
vt 0.968052 0.000194
vt 0.999806 0.000248
vt 0.998653 0.364090
vt 0.992302 0.364087
vt 0.993455 0.000244
vt 0.985952 0.364067
vt 0.987104 0.000225
vt 0.999806 0.371107
vt 0.994168 0.375440
vt 0.989530 0.371101
vt 0.979601 0.364063
vt 0.980754 0.000221
vt 0.398483 0.127627
vt 0.352569 0.017502
vt 0.575411 0.112558
vt 0.540150 0.167274
vt 0.554992 0.217831
vt 0.603310 0.217749
vt 0.603231 0.265266
vt 0.540169 0.267327
vt 0.398758 0.307462
vt 0.353230 0.417689
vt 0.070593 0.427690
vt 0.236415 0.268069
vt 0.236084 0.218367
vt 0.020426 0.218829
vt 0.020590 0.193565
vt 0.236204 0.167523
vt 0.398647 0.217987
vt 0.357718 0.010232
vt 0.562656 0.097651
vt 0.069842 0.008395
vt 0.089438 0.000194
vt 0.349447 0.008570
vt 0.575608 0.321878
vt 0.562900 0.336807
vt 0.358390 0.424919
vt 0.350145 0.426607
vt 0.090217 0.435805
vt 0.020724 0.242979
vt 0.603253 0.169351
vt 0.000516 0.218866
vt 0.000194 0.195170
vt 0.621728 0.217796
vt 0.622709 0.267582
vt 0.000327 0.241530
vt 0.622709 0.167185
vt 0.948121 0.678433
vt 0.789495 0.532162
vt 0.900690 0.503246
vt 0.966511 0.642566
vt 0.623097 0.339796
vt 0.623833 0.318321
vt 0.803507 0.317727
vt 0.803247 0.339500
vt 0.788339 0.147419
vt 0.899707 0.175665
vt 0.946084 0.000194
vt 0.966511 0.034890
vt 0.623965 0.362253
vt 0.803638 0.361766
vt 0.403946 0.584030
vt 0.386618 0.536796
vt 0.433474 0.536161
vt 0.445666 0.578297
vt 0.402726 0.488151
vt 0.445105 0.488038
vt 0.957173 0.339296
vt 0.956888 0.240752
vt 0.957467 0.437839
vt 0.591866 0.535491
vt 0.591502 0.436193
vt 0.591866 0.634528
vt 0.081844 0.741814
vt 0.229080 0.595686
vt 0.315036 0.613021
vt 0.244562 0.787542
vt 0.037043 0.578540
vt 0.212732 0.509819
vt 0.667755 0.716502
vt 0.468114 0.712677
vt 0.467575 0.712667
vt 0.467710 0.705563
vt 0.667755 0.701726
vt 0.382870 0.442895
vt 0.707080 0.694233
vt 0.707080 0.701338
vt 0.521848 0.701312
vt 0.386230 0.626927
vt 0.386058 0.439718
vt 0.386227 0.625642
vt 0.000194 0.436193
vt 0.199986 0.438851
vt 0.386230 0.826462
vt 0.467575 0.655638
vt 0.521460 0.634916
vt 0.521460 0.701338
vn 0.3535 -0.9348 0.0350
vn 0.7763 -0.3338 0.5347
vn 0.0176 0.2814 0.9594
vn -0.8636 -0.1491 0.4817
vn -0.4245 -0.9048 -0.0349
vn -0.5875 -0.2913 -0.7549
vn -0.9462 0.1851 0.2653
vn 0.0058 0.4086 0.9127
vn 0.9501 0.0685 0.3043
vn 0.5780 -0.3649 -0.7299
vn 0.5135 0.0084 -0.8581
vn 0.9302 -0.0036 0.3670
vn 0.0000 -0.0097 1.0000
vn 0.0000 1.0000 0.0097
vn -0.9302 -0.0036 0.3670
vn -0.5135 0.0084 -0.8581
vn -0.9484 -0.0508 -0.3131
vn 0.3104 -0.6255 -0.7158
vn 0.9305 -0.0142 0.3659
vn 0.0001 -0.3031 0.9529
vn 0.0000 -0.9541 0.2996
vn 0.0281 0.8332 -0.5523
vn 0.0268 0.8513 -0.5240
vn -0.0440 -0.9443 0.3262
vn 0.9484 -0.0508 -0.3131
vn -0.9305 -0.0142 0.3659
vn 0.0434 -0.9444 0.3261
vn -0.0282 0.8332 -0.5522
vn -0.0269 0.8513 -0.5240
vn -0.0001 -0.3031 0.9529
vn -0.3043 -0.6268 -0.7173
vn -0.0235 0.8487 -0.5283
vn 0.2153 0.8410 -0.4964
vn 0.0246 0.8487 -0.5284
vn -0.2110 0.8415 -0.4974
vn 0.9543 0.0447 0.2956
vn -0.0004 0.2796 -0.9601
vn -0.8904 0.0784 -0.4484
vn -0.9524 0.0785 0.2947
vn 0.0004 0.2796 -0.9601
vn -0.3176 0.7028 0.6366
vn 0.2993 0.6953 0.6534
vn 0.8904 0.0784 -0.4484
vn 0.0026 0.9249 -0.3801
vn -0.0026 0.9249 -0.3801
vn 0.0308 0.9790 -0.2016
vn -0.0322 0.9791 -0.2009
vn -0.9916 0.0842 0.0978
vn 0.9902 0.1045 0.0927
vn -0.0009 0.0082 -1.0000
vn 0.9930 0.0853 0.0819
vn -0.9944 0.0181 -0.1040
vn 0.9951 0.0302 -0.0944
vn 0.9972 0.0241 -0.0707
vn -0.9959 0.0104 -0.0894
vn -0.9887 0.1033 0.1085
vn 0.9999 0.0121 0.0018
usemtl None
s off
f 11/1/1 2/2/1 4/3/1 12/4/1
f 12/4/2 4/3/2 6/5/2 13/6/2
f 13/7/3 6/8/3 8/9/3 14/10/3
f 14/10/4 8/9/4 10/11/4 15/12/4
f 15/12/5 10/11/5 2/2/5 11/1/5
f 9/13/6 15/12/6 11/1/6 1/14/6
f 7/15/7 14/10/7 15/12/7 9/13/7
f 5/16/8 13/7/8 14/10/8 7/15/8
f 3/17/9 12/4/9 13/6/9 5/18/9
f 1/14/10 11/1/10 12/4/10 3/17/10
f 16/19/11 17/20/11 19/21/11 18/22/11
f 18/23/12 19/24/12 21/25/12 20/26/12
f 20/26/13 21/25/13 23/27/13 22/28/13
f 19/24/14 17/29/14 25/30/14 23/31/14 21/25/14
f 22/28/15 23/27/15 25/32/15 24/33/15
f 24/33/16 25/32/16 17/20/16 16/19/16
f 34/34/17 35/35/17 29/36/17 28/37/17
f 38/38/18 39/39/18 33/40/18 32/41/18
f 36/42/19 37/43/19 31/44/19 30/45/19
f 40/46/20 41/47/20 27/48/20 26/49/20
f 43/50/21 36/42/21 30/45/21 40/46/21
f 29/36/22 35/35/22 47/51/22 44/52/22
f 35/35/23 27/53/23 42/54/23 47/55/23
f 38/38/24 32/41/24 36/42/24 43/50/24
f 32/41/25 33/56/25 37/43/25 36/42/25
f 26/49/26 27/53/26 35/35/26 34/34/26
f 28/37/27 38/38/27 43/50/27 34/34/27
f 37/43/28 33/56/28 46/57/28 48/58/28
f 31/44/29 37/43/29 48/59/29 45/60/29
f 34/34/21 43/50/21 40/46/21 26/49/21
f 30/45/30 31/61/30 41/47/30 40/46/30
f 28/37/31 29/62/31 39/39/31 38/38/31
f 27/48/32 41/47/32 50/63/32 42/64/32
f 33/40/33 39/39/33 49/65/33 46/66/33
f 41/47/34 31/61/34 45/67/34 50/63/34
f 39/39/35 29/62/35 44/68/35 49/65/35
f 44/69/36 47/70/36 55/71/36 52/72/36
f 50/73/37 45/74/37 53/75/37 58/76/37
f 45/74/38 48/77/38 56/78/38 53/75/38
f 48/77/39 46/79/39 54/80/39 56/78/39
f 42/81/40 50/73/40 58/76/40 51/82/40
f 46/83/41 49/84/41 57/85/41 54/86/41
f 49/84/42 44/87/42 52/88/42 57/85/42
f 47/70/43 42/81/43 51/82/43 55/71/43
f 59/89/44 58/76/44 53/75/44 56/90/44
f 55/91/45 51/82/45 58/76/45 59/89/45
f 60/92/46 57/85/46 52/88/46 55/93/46
f 56/94/47 54/86/47 57/85/47 60/92/47
f 61/95/48 66/96/48 73/97/48 70/98/48
f 61/95/49 71/99/49 69/100/49 66/96/49
f 62/101/50 68/102/50 67/103/50 65/104/50 64/105/50
f 66/96/51 69/100/51 72/106/51
f 65/107/50 67/108/50 63/109/50
f 68/110/52 73/97/52 72/106/52 63/111/52 67/112/52
f 69/100/53 71/99/53 64/113/53 65/114/53
f 72/106/54 69/100/54 65/114/54 63/111/54
f 70/98/55 73/97/55 68/110/55 62/115/55
f 72/106/56 73/97/56 66/96/56
f 74/116/57 75/117/57 76/118/57
